/* XPM */
static char *check[] = {
/* columns rows colors chars-per-pixel */
"16 16 3 1 ",
"  c None",
". c #000000",
"X c #00FF00",
/* pixels */
"                ",
"                ",
"               .",
"              ..",
"             ...",
"            ... ",
"     ..    ..   ",
"     ...  ..    ",
"      ... .     ",
"       ...      ",
"      . ...     ",
"     .   ...    ",
"    .     ...   ",
"   .       .    ",
"                ",
"                "
};
