/* XPM */
static char *work[] = {
/* columns rows colors chars-per-pixel */
"16 16 3 1 ",
"  c None",
". c #000000",
"X c #FF8000",
/* pixels */
"                ",
"                ",
"     ......     ",
"    .XXXXXX.    ",
"   .X......X.   ",
"   .X.    .X.   ",
"   .X.    .X.   ",
"   .X......X.   ",
"   .XXXXXXXX.   ",
"  .X........X.  ",
"  .XXXXXXXXXX.  ",
"  ............  ",
"   ....  ....   ",
"   .XX.  .XX.   ",
"   ....  ....   ",
"                "
};
